_________________________  Visit us at _________________________
  
http://tinym.eu  ____________________________  http://p2pdl.com


Bedazzled 2000 720P WEB-DL Rip x264 AC3 - ViZNU [P2PDL]

					
Genre: Comedy | Fantasy
Plot: Hopeless dweeb Elliot Richards is granted 7 wishes by the devil to snare Allison, the girl of
his dreams, in exchange for his soul.
Director: Harold Ramis
Stars: Brendan Fraser, Elizabeth Hurley and Frances O'Connor.
Rated: PG-13 for sex-related humor, language and some drug content. 
http://www.imdb.com/title/tt0230030/


General
Format                         : Matroska
Format version                 : Version 2
File size                      : 690 MiB
Duration                       : 1h 33mn
Overall bit rate               : 1 035 Kbps
Movie name                     : Bedazzled 2000
Source                         : 720P.WEB-DL.5xRus.Eng.HDCLUB(Thanks)

Video
ID                             : 1
Format                         : AVC
Format/Info                    : Advanced Video Codec
Codec ID                       : V_MPEG4/ISO/AVC
Duration                       : 1h 33mn
Bit rate                       : 779 Kbps
Width                          : 1 280 pixels
Height                         : 544 pixels
Display aspect ratio           : 2.35:1
Frame rate mode                : Constant
Frame rate                     : 23.976 fps
Stream size                    : 505 MiB (73%)
Writing library                : x264 core 125 r2208 d9d2288
Default                        : Yes
Forced                         : No

Audio
ID                             : 2
Format                         : AC-3
Format/Info                    : Audio Coding 3
Codec ID                       : A_AC3
Duration                       : 1h 33mn
Bit rate mode                  : Constant
Bit rate                       : 256 Kbps
Channel(s)                     : 2 channels
Channel positions              : Front: L R
Sampling rate                  : 48.0 KHz
Stream size                    : 171 MiB (25%)
Language                       : English
Default                        : Yes
Forced                         : No

Subtitle                       : Yes(English)


Screens:

 
http://www.shotpix.com/images/96313496718035820923.png 
http://www.shotpix.com/images/48693066856179109065.png 
http://www.shotpix.com/images/77611978344125633372.png 
http://www.shotpix.com/images/72947608612243071462.png 
http://www.shotpix.com/images/17754189377782150631.png 
http://www.shotpix.com/images/71406673151046980264.png


----------------------------------------------------------------------------------------------------


Recommend to you to use latest version of VLC player. Install K-Lite Codec Pack or shark007 codecs
in case of any kind of problem in playback (For non-VLC Media Player users). Alternatively, install
Core AVC codecs, the fastest decoder that there is coupled with Community Center Codec Pack and play
on Windows Media Player Classic. Check sample to be sure.
Enjoy!


Greets to: srkfan, Vitamin_X, staff members at ExtraTorrent, TPB,KAT, 1337x, PublicHD, Ahashare,
SilverTorrent, TorrentMafia, DigTorrent, P2PDL, and all others.


Encoder Notes: Looking For Early Access To Anything You Can Provide DVDScr, R5, DVDR, BluRay, Direct
Audio, Early Music Releases, Seedboxes, Dedicated Servers anything u can provide, Advance / Promo CDs/
DVDs. If You Got anything to offer contact me at "contact@tinym.eu"


Facebook Fan Page: www . facebook . com / p2pdl